<mxfile host="65bd71144e">
    <diagram id="3oP_Z51ZBhON_m-p4WGM" name="Page-1">
        <mxGraphModel dx="1980" dy="1150" grid="1" gridSize="10" guides="1" tooltips="1" connect="1" arrows="1" fold="1" page="1" pageScale="1" pageWidth="850" pageHeight="1100" math="0" shadow="0">
            <root>
                <mxCell id="0"/>
                <mxCell id="1" parent="0"/>
                <mxCell id="2" value="Gói xây dựng ma trận hệ số&lt;font style=&quot;font-size: 21px&quot;&gt;&lt;br&gt;Contruct_table&lt;/font&gt;" style="text;strokeColor=none;fillColor=none;html=1;fontSize=24;fontStyle=1;verticalAlign=middle;align=center;" vertex="1" parent="1">
                    <mxGeometry x="233" width="385" height="60" as="geometry"/>
                </mxCell>
                <mxCell id="3" value="Input: Mảng 1 chiều vec&lt;br&gt;Output: Mảng hệ số 2 chiều table" style="shape=note;whiteSpace=wrap;html=1;backgroundOutline=1;darkOpacity=0.05;verticalAlign=bottom;align=left;" vertex="1" parent="1">
                    <mxGeometry x="30" y="20" width="80" height="110" as="geometry"/>
                </mxCell>
                <mxCell id="7" value="" style="edgeStyle=orthogonalEdgeStyle;html=1;" edge="1" parent="1" source="4" target="6">
                    <mxGeometry relative="1" as="geometry"/>
                </mxCell>
                <mxCell id="4" value="Bắt đầu" style="strokeWidth=2;html=1;shape=mxgraph.flowchart.start_1;whiteSpace=wrap;align=center;verticalAlign=middle;" vertex="1" parent="1">
                    <mxGeometry x="530.5" y="380" width="100" height="60" as="geometry"/>
                </mxCell>
                <mxCell id="10" value="" style="edgeStyle=orthogonalEdgeStyle;html=1;" edge="1" parent="1" source="6" target="9">
                    <mxGeometry relative="1" as="geometry"/>
                </mxCell>
                <mxCell id="6" value="int n = len(vec),&lt;br&gt;2D array table&lt;br&gt;cỡ nxn" style="shape=parallelogram;perimeter=parallelogramPerimeter;whiteSpace=wrap;html=1;fixedSize=1;strokeWidth=1;" vertex="1" parent="1">
                    <mxGeometry x="520.5" y="230" width="120" height="60" as="geometry"/>
                </mxCell>
                <mxCell id="12" value="" style="edgeStyle=orthogonalEdgeStyle;html=1;" edge="1" parent="1" source="9" target="11">
                    <mxGeometry relative="1" as="geometry"/>
                </mxCell>
                <mxCell id="9" value="table[0, n-1] = 1" style="whiteSpace=wrap;html=1;strokeWidth=1;" vertex="1" parent="1">
                    <mxGeometry x="300.5" y="230" width="120" height="60" as="geometry"/>
                </mxCell>
                <mxCell id="14" value="" style="edgeStyle=orthogonalEdgeStyle;html=1;" edge="1" parent="1" source="11" target="13">
                    <mxGeometry relative="1" as="geometry"/>
                </mxCell>
                <mxCell id="11" value="int i = 1" style="shape=parallelogram;perimeter=parallelogramPerimeter;whiteSpace=wrap;html=1;fixedSize=1;strokeWidth=1;" vertex="1" parent="1">
                    <mxGeometry x="320.5" y="350" width="80" height="40" as="geometry"/>
                </mxCell>
                <mxCell id="16" value="Đúng" style="edgeStyle=orthogonalEdgeStyle;html=1;" edge="1" parent="1" source="13" target="15">
                    <mxGeometry relative="1" as="geometry"/>
                </mxCell>
                <mxCell id="38" value="Sai" style="edgeStyle=orthogonalEdgeStyle;html=1;" edge="1" parent="1" source="13" target="37">
                    <mxGeometry relative="1" as="geometry"/>
                </mxCell>
                <mxCell id="13" value="i &amp;lt; n" style="rhombus;whiteSpace=wrap;html=1;strokeWidth=1;" vertex="1" parent="1">
                    <mxGeometry x="330.5" y="450" width="60" height="60" as="geometry"/>
                </mxCell>
                <mxCell id="18" value="" style="edgeStyle=orthogonalEdgeStyle;html=1;entryX=0;entryY=0.5;entryDx=0;entryDy=0;" edge="1" parent="1" source="15" target="19">
                    <mxGeometry relative="1" as="geometry">
                        <mxPoint x="520.5" y="620" as="targetPoint"/>
                    </mxGeometry>
                </mxCell>
                <mxCell id="15" value="table[i, n-i-1] = 1" style="whiteSpace=wrap;html=1;strokeWidth=1;" vertex="1" parent="1">
                    <mxGeometry x="300.5" y="590" width="120" height="60" as="geometry"/>
                </mxCell>
                <mxCell id="21" style="edgeStyle=orthogonalEdgeStyle;html=1;" edge="1" parent="1" source="19" target="20">
                    <mxGeometry relative="1" as="geometry"/>
                </mxCell>
                <mxCell id="19" value="int j = n - i" style="shape=parallelogram;perimeter=parallelogramPerimeter;whiteSpace=wrap;html=1;fixedSize=1;strokeWidth=1;" vertex="1" parent="1">
                    <mxGeometry x="520.5" y="600" width="80" height="40" as="geometry"/>
                </mxCell>
                <mxCell id="23" value="Sai" style="edgeStyle=orthogonalEdgeStyle;html=1;" edge="1" parent="1" source="20" target="22">
                    <mxGeometry relative="1" as="geometry"/>
                </mxCell>
                <mxCell id="26" value="Đúng" style="edgeStyle=orthogonalEdgeStyle;html=1;entryX=0.5;entryY=0;entryDx=0;entryDy=0;" edge="1" parent="1" source="20" target="28">
                    <mxGeometry relative="1" as="geometry">
                        <mxPoint x="720.5" y="730" as="targetPoint"/>
                    </mxGeometry>
                </mxCell>
                <mxCell id="20" value="j &amp;lt; n" style="rhombus;whiteSpace=wrap;html=1;strokeWidth=1;" vertex="1" parent="1">
                    <mxGeometry x="690.5" y="590" width="60" height="60" as="geometry"/>
                </mxCell>
                <mxCell id="24" style="edgeStyle=orthogonalEdgeStyle;html=1;entryX=1;entryY=0.5;entryDx=0;entryDy=0;" edge="1" parent="1" source="22" target="13">
                    <mxGeometry relative="1" as="geometry"/>
                </mxCell>
                <mxCell id="22" value="i ++" style="whiteSpace=wrap;html=1;strokeWidth=1;" vertex="1" parent="1">
                    <mxGeometry x="690.5" y="465" width="60" height="30" as="geometry"/>
                </mxCell>
                <mxCell id="31" value="Catch" style="edgeStyle=orthogonalEdgeStyle;html=1;" edge="1" parent="1" source="27" target="30">
                    <mxGeometry relative="1" as="geometry"/>
                </mxCell>
                <mxCell id="34" value="don't catch" style="edgeStyle=orthogonalEdgeStyle;html=1;" edge="1" parent="1" source="27" target="33">
                    <mxGeometry relative="1" as="geometry"/>
                </mxCell>
                <mxCell id="27" value="Index out of range" style="rhombus;whiteSpace=wrap;html=1;strokeWidth=1;" vertex="1" parent="1">
                    <mxGeometry x="530.5" y="730" width="60" height="60" as="geometry"/>
                </mxCell>
                <mxCell id="32" style="edgeStyle=orthogonalEdgeStyle;html=1;entryX=1;entryY=0.5;entryDx=0;entryDy=0;" edge="1" parent="1" source="28" target="27">
                    <mxGeometry relative="1" as="geometry"/>
                </mxCell>
                <mxCell id="28" value="table[i,j] = table[i-1,j+1] - vec[i]*table[i-1,j]" style="whiteSpace=wrap;html=1;strokeWidth=1;" vertex="1" parent="1">
                    <mxGeometry x="655.5" y="730" width="130" height="60" as="geometry"/>
                </mxCell>
                <mxCell id="35" style="edgeStyle=orthogonalEdgeStyle;html=1;entryX=0;entryY=0.5;entryDx=0;entryDy=0;" edge="1" parent="1" source="30" target="33">
                    <mxGeometry relative="1" as="geometry">
                        <Array as="points">
                            <mxPoint x="375.5" y="890"/>
                        </Array>
                    </mxGeometry>
                </mxCell>
                <mxCell id="30" value="table[i,j] = -vec[i]*table[i-1,j]" style="whiteSpace=wrap;html=1;strokeWidth=1;" vertex="1" parent="1">
                    <mxGeometry x="300.5" y="730" width="150" height="60" as="geometry"/>
                </mxCell>
                <mxCell id="36" style="edgeStyle=orthogonalEdgeStyle;html=1;entryX=1;entryY=0.5;entryDx=0;entryDy=0;" edge="1" parent="1" source="33" target="20">
                    <mxGeometry relative="1" as="geometry">
                        <Array as="points">
                            <mxPoint x="840" y="890"/>
                            <mxPoint x="840" y="620"/>
                        </Array>
                    </mxGeometry>
                </mxCell>
                <mxCell id="33" value="j ++" style="whiteSpace=wrap;html=1;strokeWidth=1;" vertex="1" parent="1">
                    <mxGeometry x="520.5" y="870" width="80" height="40" as="geometry"/>
                </mxCell>
                <mxCell id="40" style="edgeStyle=orthogonalEdgeStyle;html=1;entryX=1;entryY=0.5;entryDx=0;entryDy=0;entryPerimeter=0;" edge="1" parent="1" source="37" target="39">
                    <mxGeometry relative="1" as="geometry"/>
                </mxCell>
                <mxCell id="37" value="Trả về table" style="whiteSpace=wrap;html=1;strokeWidth=1;" vertex="1" parent="1">
                    <mxGeometry x="160.5" y="450" width="120" height="60" as="geometry"/>
                </mxCell>
                <mxCell id="39" value="Kết thúc" style="strokeWidth=2;html=1;shape=mxgraph.flowchart.start_1;whiteSpace=wrap;align=center;verticalAlign=middle;" vertex="1" parent="1">
                    <mxGeometry x="0.5" y="450" width="100" height="60" as="geometry"/>
                </mxCell>
            </root>
        </mxGraphModel>
    </diagram>
</mxfile>